<svg xmlns="http://www.w3.org/2000/svg" xmlns:xlink="http://www.w3.org/1999/xlink" xml:space="preserve" version="1.1" style="shape-rendering:geometricPrecision;text-rendering:geometricPrecision;image-rendering:optimizeQuality;" viewBox="0 0 100 125" x="0px" y="0px" fill-rule="evenodd" clip-rule="evenodd"><defs><style type="text/css">
   
    .fil0 {fill:black;fill-rule:nonzero}
   
  </style></defs><g><path class="fil0" d="M56.38 25.6l0.02 0 0.01 0 0.01 0 0.01 0 0 0 0 0 0.01 0 0 0 0 0 0.01 0 0 0 0.01 0 0 0 0.01 0.01 0 0 0.01 0 0 0 0.01 0 0 0 0.01 0 0 0 0.01 0 0 0 0 0 0.01 0 0 0 0.01 0 0.01 0.01 0 0 0 0 0.01 0 0 0 0 0 0.01 0 0 0 0 0 0 0 0.01 0.01 0.01 0 0 0 0 0 0.01 0 0 0 0 0 0.01 0 0 0 0 0.01 0.01 0 0 0 0.01 0 0 0 0.01 0.01 0 0 0.01 0 0 0 0 0 0.01 0.01 0 0 0 0 0.01 0 0 0 0 0 0.01 0.01 0 0 0.01 0 0.01 0 0 0.01 0 0 0 0 0.01 0 0 0 0.01 0.01 0 0 0 0 0 0 0.01 0.01 0 0 0.01 0 0 0 0 0.01 0.01 0 0 0 0 0 0.01 0.01 0 0 0 0 0.01 0 0 0.01 0 0 0.01 0 0 0.01 2.31 1.79 3.97 0c0.31,0 0.55,0.24 0.55,0.55l1.08 21.72c0.01,0.31 -0.22,0.56 -0.53,0.58 -0.3,0.01 -0.56,-0.22 -0.57,-0.52l-1.05 -21.23 -3.09 0 0 9.44c0,0.31 -0.25,0.55 -0.55,0.55 -0.31,0 -0.55,-0.24 -0.55,-0.55l0 -9.72 -1.38 -1.07 0 10.79c0,2.63 0.67,5.23 1.76,7.54 1.18,2.49 2.84,4.65 4.68,6.12l24.12 21.71c0.23,0.2 0.24,0.55 0.04,0.78 -0.11,0.12 -0.26,0.18 -0.41,0.18l-8.65 0 -0.01 0 -0.01 0 -16.08 0c-0.27,0 -0.5,-0.2 -0.54,-0.46l-4.99 -18.17c-0.61,-2.21 -1.08,-3.72 -1.72,-4.89 -0.61,-1.13 -1.39,-1.97 -2.61,-2.86l-2.54 -1.85 -2.54 1.85c-1.22,0.89 -2,1.73 -2.62,2.86 -0.63,1.17 -1.11,2.68 -1.71,4.89l-0.72 2.61c0.24,-0.32 0.48,-0.63 0.74,-0.93 1.26,-1.49 2.75,-2.68 4.39,-3.3l0.02 -0.01c1.67,-0.63 3.49,-0.67 5.38,0.15 0.83,0.36 1.67,0.89 2.52,1.6 0.23,0.2 0.25,0.55 0.06,0.78 -0.2,0.23 -0.55,0.25 -0.78,0.06 -0.76,-0.65 -1.51,-1.12 -2.24,-1.44 -1.6,-0.69 -3.14,-0.66 -4.55,-0.12l-0.02 0c-1.46,0.56 -2.8,1.64 -3.95,2.99 -1.1,1.29 -2.02,2.83 -2.72,4.41l-3.12 11.37c-0.04,0.26 -0.27,0.46 -0.54,0.46l-24.76 0c-0.15,0 -0.29,-0.06 -0.4,-0.18 -0.21,-0.23 -0.19,-0.58 0.04,-0.78l24.12 -21.71c1.84,-1.47 3.5,-3.63 4.68,-6.12 1.09,-2.31 1.76,-4.91 1.76,-7.54l0 -10.79 -1.38 1.07 0 9.72c0,0.31 -0.25,0.55 -0.55,0.55 -0.3,0 -0.55,-0.24 -0.55,-0.55l0 -9.44 -3.09 0 -1.05 21.23c-0.02,0.3 -0.27,0.53 -0.57,0.52 -0.31,-0.02 -0.54,-0.27 -0.53,-0.58l1.07 -21.72c0,-0.31 0.25,-0.55 0.56,-0.55l3.97 0 2.31 -1.79 0.01 -0.01 0.01 -0.01 0 0 0.02 -0.02 0 0 0.01 0 0 0 0.01 -0.01 0 0 0.01 -0.01 0 0 0.01 0 0 0 0.01 -0.01 0.01 0 0.01 -0.01 0 0 0.01 0 0 0 0.01 -0.01 0 0 0.01 0 0 0 0.01 -0.01 0 0 0.01 0 0.02 -0.01 0 0 0.03 -0.01 0.01 0 0 0 0.01 0 0 0 0.02 -0.01 0 0c0.03,0 0.07,-0.01 0.11,-0.01l0.02 0 0.02 0 12.75 0zm-23.43 41.36c0.17,-0.26 0.51,-0.33 0.76,-0.16 0.25,0.16 0.33,0.5 0.16,0.75l-3.75 5.75 7.06 0 3 -10.92c0,-0.05 0.02,-0.11 0.04,-0.16l0.01 -0.02 1.84 -6.71c0.63,-2.3 1.13,-3.88 1.81,-5.13 0.7,-1.29 1.57,-2.23 2.94,-3.22l2.84 -2.08 0 0 0.01 -0.01 0.01 0 0 -0.01 0.01 0 0.01 -0.01 0 0 0.01 0 0 -0.01 0.01 0 0 0 0.01 -0.01 0.01 0 0 0 0.01 -0.01 0 0 0.01 0 0 -0.01 0.01 0 0.01 0 0.01 -0.01 0 0 0.01 0 0 0 0.01 0 0 -0.01 0.01 0 0.01 0 0.01 0 0 0 0.01 -0.01 0 0 0.01 0 0 0 0.01 0 0.01 0 0.01 -0.01 0 0 0.01 0 0 0 0.01 0 0 0 0.02 0 0.01 -0.01 0.01 0 0.02 0 0.01 0 0.01 0 0.02 0 0.01 0 0.01 0 0.02 0 0.01 0 0.01 0.01 0.02 0 0 0 0.01 0 0 0 0.01 0 0 0 0.01 0.01 0 0 0.02 0 0 0 0.01 0 0 0 0.01 0.01 0 0 0.01 0 0.01 0 0.01 0 0 0.01 0.01 0 0 0 0.01 0 0 0 0.01 0.01 0.01 0 0.01 0 0 0.01 0.01 0 0 0 0.01 0.01 0 0 0.01 0 0.01 0.01 0 0 0.01 0 0 0.01 0.01 0 0 0 0.01 0.01 0.01 0 0 0.01 0.01 0 0.01 0.01 0 0 2.84 2.08c1.37,0.99 2.24,1.93 2.94,3.22 0.68,1.25 1.18,2.83 1.81,5.13l4.89 17.81 7.05 0 -3.74 -5.75c-0.17,-0.25 -0.1,-0.59 0.16,-0.75 0.25,-0.17 0.59,-0.1 0.76,0.16l4.14 6.34 6.06 0 -9.28 -10.22c-0.2,-0.23 -0.19,-0.58 0.04,-0.78 0.22,-0.2 0.57,-0.19 0.77,0.04l9.95 10.96 6.99 0 -23.03 -20.73c-1.95,-1.58 -3.72,-3.86 -4.96,-6.5 -1.16,-2.45 -1.87,-5.21 -1.87,-8l0 -11.37 -11.72 0 0 11.37c0,2.79 -0.71,5.55 -1.87,8 -1.24,2.64 -3.01,4.92 -4.96,6.5l-23.03 20.73 6.98 0 12.34 -13.59c0.2,-0.22 0.55,-0.24 0.77,-0.03 0.23,0.2 0.24,0.55 0.04,0.77l-11.66 12.85 6.06 0 4.14 -6.34zm34.2 -6.42c0.21,0.23 0.19,0.58 -0.03,0.78 -0.23,0.2 -0.57,0.19 -0.78,-0.04l-0.75 -0.83c-0.21,-0.22 -0.19,-0.57 0.03,-0.77 0.23,-0.21 0.58,-0.19 0.78,0.03l0.75 0.83zm-21.93 -32.24c0,-0.31 0.24,-0.55 0.55,-0.55 0.3,0 0.55,0.24 0.55,0.55l0 2.37c0,0.3 -0.25,0.55 -0.55,0.55 -0.31,0 -0.55,-0.25 -0.55,-0.55l0 -2.37zm2.11 0c0,-0.31 0.25,-0.55 0.55,-0.55 0.31,0 0.55,0.24 0.55,0.55l0 2.37c0,0.3 -0.24,0.55 -0.55,0.55 -0.3,0 -0.55,-0.25 -0.55,-0.55l0 -2.37zm2.12 0c0,-0.31 0.25,-0.55 0.55,-0.55 0.3,0 0.55,0.24 0.55,0.55l0 2.37c0,0.3 -0.25,0.55 -0.55,0.55 -0.3,0 -0.55,-0.25 -0.55,-0.55l0 -2.37zm2.12 0c0,-0.31 0.24,-0.55 0.55,-0.55 0.3,0 0.55,0.24 0.55,0.55l0 2.37c0,0.3 -0.25,0.55 -0.55,0.55 -0.31,0 -0.55,-0.25 -0.55,-0.55l0 -2.37zm2.11 0c0,-0.31 0.25,-0.55 0.55,-0.55 0.31,0 0.55,0.24 0.55,0.55l0 2.37c0,0.3 -0.24,0.55 -0.55,0.55 -0.3,0 -0.55,-0.25 -0.55,-0.55l0 -2.37z"/></g><text x="0" y="115" fill="#000000" font-size="5px" font-weight="bold" font-family="'Helvetica Neue', Helvetica, Arial-Unicode, Arial, Sans-serif">Created by Hadi</text><text x="0" y="120" fill="#000000" font-size="5px" font-weight="bold" font-family="'Helvetica Neue', Helvetica, Arial-Unicode, Arial, Sans-serif">from the Noun Project</text></svg>